<?xml version="1.0" encoding="utf-8"?>
<svg version="1.1" xmlns:xlink="http://www.w3.org/1999/xlink" width="52px" height="51px" xmlns="http://www.w3.org/2000/svg">
  <g transform="matrix(1 0 0 1 -1036 -689 )">
    <path d="M 1036 689  L 1088 689  L 1088 740  L 1036 740  L 1036 689  " fill-rule="nonzero" fill="#cccccc" stroke="none" />
    <path d="M 1040 693  L 1084 693  L 1084 736  L 1040 736  L 1040 693  " fill-rule="nonzero" fill="#ffffff" stroke="none" />
    <path d="M 1066.865 704.3  C 1064.723 704.3  1063.04 702.617  1063.04 700.475  C 1063.04 698.333  1064.723 696.65  1066.865 696.65  C 1069.007 696.65  1070.69 698.333  1070.69 700.475  C 1070.69 702.617  1069.007 704.3  1066.865 704.3  " fill-rule="nonzero" fill="#cccccc" stroke="none" />
    <path d="M 1042 735  L 1042 713  L 1052.25 703  L 1066.6 711.461538461538  L 1074.8 709  L 1083 711.461538461538  L 1083 735  L 1042 735  " fill-rule="nonzero" fill="#169bd5" stroke="none" />
  </g>
</svg>