<?xml version="1.0" encoding="utf-8"?>
<svg version="1.1" xmlns:xlink="http://www.w3.org/1999/xlink" width="72px" height="92px" xmlns="http://www.w3.org/2000/svg">
  <g transform="matrix(1 0 0 1 -154 -13 )">
    <path d="M 154 13  L 226 13  L 226 105  L 154 105  L 154 13  " fill-rule="nonzero" fill="#cccccc" stroke="none" />
    <path d="M 159 18  L 221 18  L 221 100  L 159 100  L 159 18  " fill-rule="nonzero" fill="#ffffff" stroke="none" />
    <path d="M 196.84 37.6  C 193.816 37.6  191.44 35.224  191.44 32.2  C 191.44 29.176  193.816 26.8  196.84 26.8  C 199.864 26.8  202.24 29.176  202.24 32.2  C 202.24 35.224  199.864 37.6  196.84 37.6  " fill-rule="nonzero" fill="#cccccc" stroke="none" />
    <path d="M 161 98  L 161 55.1  L 175.5 35.6  L 195.8 51.2  L 207.4 47.3  L 219 51.2  L 219 98  L 161 98  " fill-rule="nonzero" fill="#169bd5" stroke="none" />
  </g>
</svg>