<?xml version="1.0" encoding="utf-8"?>
<svg version="1.1" xmlns:xlink="http://www.w3.org/1999/xlink" width="14px" height="14px" xmlns="http://www.w3.org/2000/svg">
  <g transform="matrix(1 0 0 1 -193 -280 )">
    <path d="M 200 280  C 203.92 280  207 283.08  207 287  C 207 290.92  203.92 294  200 294  C 196.08 294  193 290.92  193 287  C 193 283.08  196.08 280  200 280  Z " fill-rule="nonzero" fill="#f2f2f2" stroke="none" />
    <path d="M 200 280.5  C 203.64 280.5  206.5 283.36  206.5 287  C 206.5 290.64  203.64 293.5  200 293.5  C 196.36 293.5  193.5 290.64  193.5 287  C 193.5 283.36  196.36 280.5  200 280.5  Z " stroke-width="1" stroke="#797979" fill="none" />
  </g>
</svg>