<?xml version="1.0" encoding="utf-8"?>
<svg version="1.1" xmlns:xlink="http://www.w3.org/1999/xlink" width="14px" height="14px" xmlns="http://www.w3.org/2000/svg">
  <g transform="matrix(1 0 0 1 -193 -289 )">
    <path d="M 200 289  C 203.92 289  207 292.08  207 296  C 207 299.92  203.92 303  200 303  C 196.08 303  193 299.92  193 296  C 193 292.08  196.08 289  200 289  Z " fill-rule="nonzero" fill="#f2f2f2" stroke="none" />
    <path d="M 200 289.5  C 203.64 289.5  206.5 292.36  206.5 296  C 206.5 299.64  203.64 302.5  200 302.5  C 196.36 302.5  193.5 299.64  193.5 296  C 193.5 292.36  196.36 289.5  200 289.5  Z " stroke-width="1" stroke="#797979" fill="none" />
  </g>
</svg>