<?xml version="1.0" encoding="utf-8"?>
<svg version="1.1" xmlns:xlink="http://www.w3.org/1999/xlink" width="218px" height="48px" xmlns="http://www.w3.org/2000/svg">
  <defs>
    <filter x="274px" y="197px" width="218px" height="48px" filterUnits="userSpaceOnUse" id="filter201">
      <feOffset dx="0" dy="0" in="SourceAlpha" result="shadowOffsetInner" />
      <feGaussianBlur stdDeviation="2.5" in="shadowOffsetInner" result="shadowGaussian" />
      <feComposite in2="shadowGaussian" operator="atop" in="SourceAlpha" result="shadowComposite" />
      <feColorMatrix type="matrix" values="0 0 0 0 0  0 0 0 0 0  0 0 0 0 0  0 0 0 0.349019607843137 0  " in="shadowComposite" />
    </filter>
    <g id="widget202">
      <path d="M 279.5 228.562091503268  C 279.5 228.562091503268  279.5 204  279.5 204  C 279.5 203.171572875254  280.171572875254 202.5  281 202.5  C 281 202.5  485 202.5  485 202.5  C 485.828427124746 202.5  486.5 203.171572875254  486.5 204  C 486.5 204  486.5 228.562091503268  486.5 228.562091503268  C 486.5 229.390518628014  485.828427124746 230.062091503268  485 230.062091503268  C 485 230.062091503268  305.422388501405 230.062091503268  305.422388501405 230.062091503268  C 305.422388501405 230.062091503268  296.120311527708 238.099387553979  296.120311527708 238.099387553979  C 296.120311527708 238.099387553979  286.794200939416 230.062091503268  286.794200939416 230.062091503268  C 286.794200939416 230.062091503268  281 230.062091503268  281 230.062091503268  C 280.171572875254 230.062091503268  279.5 229.390518628014  279.5 228.562091503268  Z " fill-rule="nonzero" fill="#ffffff" stroke="none" />
      <path d="M 279 228.562091503268  C 279 228.562091503268  279 204  279 204  C 279 202.895430500338  279.895430500338 202  281 202  C 281 202  485 202  485 202  C 486.104569499662 202  487 202.895430500338  487 204  C 487 204  487 228.562091503268  487 228.562091503268  C 487 229.66666100293  486.104569499662 230.562091503268  485 230.562091503268  C 485 230.562091503268  305.608476310039 230.562091503268  305.608476310039 230.562091503268  C 305.608476310039 230.562091503268  296.120732968819 238.759809314265  296.120732968819 238.759809314265  C 296.120732968819 238.759809314265  286.608476310039 230.562091503268  286.608476310039 230.562091503268  C 286.608476310039 230.562091503268  281 230.562091503268  281 230.562091503268  C 279.895430500338 230.562091503268  279 229.66666100293  279 228.562091503268  Z M 280 228.562091503268  C 280 229.114376253099  280.447715250169 229.562091503268  281 229.562091503268  C 281 229.562091503268  286.979925568794 229.562091503268  286.979925568794 229.562091503268  C 286.979925568794 229.562091503268  296.119890086597 237.438965793693  296.119890086597 237.438965793693  C 296.119890086597 237.438965793693  305.236300692772 229.562091503268  305.236300692772 229.562091503268  C 305.236300692772 229.562091503268  485 229.562091503268  485 229.562091503268  C 485.552284749831 229.562091503268  486 229.114376253099  486 228.562091503268  C 486 228.562091503268  486 204  486 204  C 486 203.447715250169  485.552284749831 203  485 203  C 485 203  281 203  281 203  C 280.447715250169 203  280 203.447715250169  280 204  C 280 204  280 228.562091503268  280 228.562091503268  Z " fill-rule="nonzero" fill="#aaaaaa" stroke="none" />
    </g>
  </defs>
  <g transform="matrix(1 0 0 1 -274 -197 )">
    <use xlink:href="#widget202" filter="url(#filter201)" />
    <use xlink:href="#widget202" />
  </g>
</svg>