<?xml version="1.0" encoding="utf-8"?>
<svg version="1.1" xmlns:xlink="http://www.w3.org/1999/xlink" width="211px" height="42px" xmlns="http://www.w3.org/2000/svg">
  <defs>
    <filter x="274px" y="2627px" width="211px" height="42px" filterUnits="userSpaceOnUse" id="filter83">
      <feOffset dx="0" dy="0" in="SourceAlpha" result="shadowOffsetInner" />
      <feGaussianBlur stdDeviation="2.5" in="shadowOffsetInner" result="shadowGaussian" />
      <feComposite in2="shadowGaussian" operator="atop" in="SourceAlpha" result="shadowComposite" />
      <feColorMatrix type="matrix" values="0 0 0 0 0  0 0 0 0 0  0 0 0 0 0  0 0 0 0.349019607843137 0  " in="shadowComposite" />
    </filter>
    <g id="widget84">
      <path d="M 279.5 2654.0522875817  C 279.5 2654.0522875817  279.5 2634  279.5 2634  C 279.5 2633.17157287525  280.171572875254 2632.5  281 2632.5  C 281 2632.5  478 2632.5  478 2632.5  C 478.828427124746 2632.5  479.5 2633.17157287525  479.5 2634  C 479.5 2634  479.5 2654.0522875817  479.5 2654.0522875817  C 479.5 2654.88071470645  478.828427124746 2655.5522875817  478 2655.5522875817  C 478 2655.5522875817  303.346595631307 2655.5522875817  303.346595631307 2655.5522875817  C 303.346595631307 2655.5522875817  295.544070836459 2662.29520709333  295.544070836459 2662.29520709333  C 295.544070836459 2662.29520709333  287.718408168065 2655.5522875817  287.718408168065 2655.5522875817  C 287.718408168065 2655.5522875817  281 2655.5522875817  281 2655.5522875817  C 280.171572875254 2655.5522875817  279.5 2654.88071470645  279.5 2654.0522875817  Z " fill-rule="nonzero" fill="#ffffff" stroke="none" />
      <path d="M 279 2654.0522875817  C 279 2654.0522875817  279 2634  279 2634  C 279 2632.89543050034  279.895430500338 2632  281 2632  C 281 2632  478 2632  478 2632  C 479.104569499662 2632  480 2632.89543050034  480 2634  C 480 2634  480 2654.0522875817  480 2654.0522875817  C 480 2655.15685708136  479.104569499662 2656.0522875817  478 2656.0522875817  C 478 2656.0522875817  303.532710280374 2656.0522875817  303.532710280374 2656.0522875817  C 303.532710280374 2656.0522875817  295.544554455446 2662.95562889622  295.544554455446 2662.95562889622  C 295.544554455446 2662.95562889622  287.532710280374 2656.0522875817  287.532710280374 2656.0522875817  C 287.532710280374 2656.0522875817  281 2656.0522875817  281 2656.0522875817  C 279.895430500338 2656.0522875817  279 2655.15685708136  279 2654.0522875817  Z M 280 2654.0522875817  C 280 2654.60457233153  280.447715250169 2655.0522875817  281 2655.0522875817  C 281 2655.0522875817  287.904106055757 2655.0522875817  287.904106055757 2655.0522875817  C 287.904106055757 2655.0522875817  295.543587217473 2661.63478529044  295.543587217473 2661.63478529044  C 295.543587217473 2661.63478529044  303.160480982241 2655.0522875817  303.160480982241 2655.0522875817  C 303.160480982241 2655.0522875817  478 2655.0522875817  478 2655.0522875817  C 478.552284749831 2655.0522875817  479 2654.60457233153  479 2654.0522875817  C 479 2654.0522875817  479 2634  479 2634  C 479 2633.44771525017  478.552284749831 2633  478 2633  C 478 2633  281 2633  281 2633  C 280.447715250169 2633  280 2633.44771525017  280 2634  C 280 2634  280 2654.0522875817  280 2654.0522875817  Z " fill-rule="nonzero" fill="#aaaaaa" stroke="none" />
    </g>
  </defs>
  <g transform="matrix(1 0 0 1 -274 -2627 )">
    <use xlink:href="#widget84" filter="url(#filter83)" />
    <use xlink:href="#widget84" />
  </g>
</svg>