<?xml version="1.0" encoding="utf-8"?>
<svg version="1.1" xmlns:xlink="http://www.w3.org/1999/xlink" width="176px" height="24px" xmlns="http://www.w3.org/2000/svg">
  <defs>
    <mask fill="white" id="clip153">
      <path d="M 0 22  L 0 2  C 0 0.880000000000109  0.879999999999999 0  2 0  L 98.7272727272727 0  L 174 0  C 175.12 0  176 0.880000000000109  176 2  L 176 22  C 176 23.1199999999999  175.12 24  174 24  L 2 24  C 0.879999999999999 24  0 23.1199999999999  0 22  Z " fill-rule="evenodd" />
    </mask>
  </defs>
  <g transform="matrix(1 0 0 1 -24 -2594 )">
    <path d="M 0 22  L 0 2  C 0 0.880000000000109  0.879999999999999 0  2 0  L 98.7272727272727 0  L 174 0  C 175.12 0  176 0.880000000000109  176 2  L 176 22  C 176 23.1199999999999  175.12 24  174 24  L 2 24  C 0.879999999999999 24  0 23.1199999999999  0 22  Z " fill-rule="nonzero" fill="#ffffff" stroke="none" transform="matrix(1 0 0 1 24 2594 )" />
    <path d="M 0 22  L 0 2  C 0 0.880000000000109  0.879999999999999 0  2 0  L 98.7272727272727 0  L 174 0  C 175.12 0  176 0.880000000000109  176 2  L 176 22  C 176 23.1199999999999  175.12 24  174 24  L 2 24  C 0.879999999999999 24  0 23.1199999999999  0 22  Z " stroke-width="2" stroke="#aaaaaa" fill="none" transform="matrix(1 0 0 1 24 2594 )" mask="url(#clip153)" />
  </g>
</svg>