<?xml version="1.0" encoding="utf-8"?>
<svg version="1.1" xmlns:xlink="http://www.w3.org/1999/xlink" width="33px" height="32px" xmlns="http://www.w3.org/2000/svg">
  <g transform="matrix(1 0 0 1 -84 -340 )">
    <path d="M 84 340  L 117 340  L 117 372  L 84 372  L 84 340  " fill-rule="nonzero" fill="#cccccc" stroke="none" />
    <path d="M 86 342  L 115 342  L 115 370  L 86 370  L 86 342  " fill-rule="nonzero" fill="#ffffff" stroke="none" />
    <path d="M 103.56 349.6  C 102.216 349.6  101.16 348.544  101.16 347.2  C 101.16 345.856  102.216 344.8  103.56 344.8  C 104.904 344.8  105.96 345.856  105.96 347.2  C 105.96 348.544  104.904 349.6  103.56 349.6  " fill-rule="nonzero" fill="#cccccc" stroke="none" />
    <path d="M 87 369  L 87 354.7  L 93.75 348.2  L 103.2 353.872727272727  L 108.6 352.1  L 114 353.872727272727  L 114 369  L 87 369  " fill-rule="nonzero" fill="#169bd5" stroke="none" />
  </g>
</svg>