<?xml version="1.0" encoding="utf-8"?>
<svg version="1.1" xmlns:xlink="http://www.w3.org/1999/xlink" width="12px" height="12px" viewBox="150 677  12 12" xmlns="http://www.w3.org/2000/svg">
  <path d="M 156 677  C 159.36 677  162 679.64  162 683  C 162 686.36  159.36 689  156 689  C 152.64 689  150 686.36  150 683  C 150 679.64  152.64 677  156 677  Z " fill-rule="nonzero" fill="#ffffff" stroke="none" />
  <path d="M 156 677.5  C 159.08 677.5  161.5 679.92  161.5 683  C 161.5 686.08  159.08 688.5  156 688.5  C 152.92 688.5  150.5 686.08  150.5 683  C 150.5 679.92  152.92 677.5  156 677.5  Z " stroke-width="1" stroke="#797979" fill="none" />
  <path d="M 156 686  C 154.32 686  153 684.68  153 683  C 153 681.32  154.32 680  156 680  C 157.68 680  159 681.32  159 683  C 159 684.68  157.68 686  156 686  " fill-rule="nonzero" fill="#797979" stroke="none" />
</svg>