<?xml version="1.0" encoding="utf-8"?>
<svg version="1.1" xmlns:xlink="http://www.w3.org/1999/xlink" width="32px" height="32px" xmlns="http://www.w3.org/2000/svg">
  <g transform="matrix(1 0 0 1 -81 -340 )">
    <path d="M 81 340  L 113 340  L 113 372  L 81 372  L 81 340  " fill-rule="nonzero" fill="#cccccc" stroke="none" />
    <path d="M 83 342  L 111 342  L 111 370  L 83 370  L 83 342  " fill-rule="nonzero" fill="#ffffff" stroke="none" />
    <path d="M 100.04 349.6  C 98.696 349.6  97.64 348.544  97.64 347.2  C 97.64 345.856  98.696 344.8  100.04 344.8  C 101.384 344.8  102.44 345.856  102.44 347.2  C 102.44 348.544  101.384 349.6  100.04 349.6  " fill-rule="nonzero" fill="#cccccc" stroke="none" />
    <path d="M 84 369  L 84 354.7  L 90.5 348.2  L 99.6 353.4  L 104.8 352.1  L 110 353.4  L 110 369  L 84 369  " fill-rule="nonzero" fill="#169bd5" stroke="none" />
  </g>
</svg>