<?xml version="1.0" encoding="utf-8"?>
<svg version="1.1" xmlns:xlink="http://www.w3.org/1999/xlink" width="12px" height="12px" viewBox="83 677  12 12" xmlns="http://www.w3.org/2000/svg">
  <path d="M 89 677  C 92.36 677  95 679.64  95 683  C 95 686.36  92.36 689  89 689  C 85.64 689  83 686.36  83 683  C 83 679.64  85.64 677  89 677  Z " fill-rule="nonzero" fill="#f0f0f0" stroke="none" />
  <path d="M 89 677.5  C 92.08 677.5  94.5 679.92  94.5 683  C 94.5 686.08  92.08 688.5  89 688.5  C 85.92 688.5  83.5 686.08  83.5 683  C 83.5 679.92  85.92 677.5  89 677.5  Z " stroke-width="1" stroke="#02a7f0" fill="none" />
  <path d="M 89 686  C 87.32 686  86 684.68  86 683  C 86 681.32  87.32 680  89 680  C 90.68 680  92 681.32  92 683  C 92 684.68  90.68 686  89 686  " fill-rule="nonzero" fill="#02a7f0" stroke="none" />
</svg>