<?xml version="1.0" encoding="utf-8"?>
<svg version="1.1" xmlns:xlink="http://www.w3.org/1999/xlink" width="232px" height="48px" xmlns="http://www.w3.org/2000/svg">
  <defs>
    <filter x="247px" y="197px" width="232px" height="48px" filterUnits="userSpaceOnUse" id="filter264">
      <feOffset dx="0" dy="0" in="SourceAlpha" result="shadowOffsetInner" />
      <feGaussianBlur stdDeviation="2.5" in="shadowOffsetInner" result="shadowGaussian" />
      <feComposite in2="shadowGaussian" operator="atop" in="SourceAlpha" result="shadowComposite" />
      <feColorMatrix type="matrix" values="0 0 0 0 0  0 0 0 0 0  0 0 0 0 0  0 0 0 0.349019607843137 0  " in="shadowComposite" />
    </filter>
    <g id="widget265">
      <path d="M 252 228.562091503268  C 252 228.562091503268  252 204  252 204  C 252 202.895430500338  252.895430500338 202  254 202  C 254 202  472 202  472 202  C 473.104569499662 202  474 202.895430500338  474 204  C 474 204  474 228.562091503268  474 228.562091503268  C 474 229.66666100293  473.104569499662 230.562091503268  472 230.562091503268  C 472 230.562091503268  279.760008369368 230.562091503268  279.760008369368 230.562091503268  C 279.760008369368 230.562091503268  270.273089995567 238.759809314265  270.273089995567 238.759809314265  C 270.273089995567 238.759809314265  260.760008369368 230.562091503268  260.760008369368 230.562091503268  C 260.760008369368 230.562091503268  254 230.562091503268  254 230.562091503268  C 252.895430500338 230.562091503268  252 229.66666100293  252 228.562091503268  Z " fill-rule="nonzero" fill="#000000" stroke="none" fill-opacity="0.498039215686275" />
    </g>
  </defs>
  <g transform="matrix(1 0 0 1 -247 -197 )">
    <use xlink:href="#widget265" filter="url(#filter264)" />
    <use xlink:href="#widget265" />
  </g>
</svg>