<?xml version="1.0" encoding="utf-8"?>
<svg version="1.1" xmlns:xlink="http://www.w3.org/1999/xlink" width="232px" height="45px" xmlns="http://www.w3.org/2000/svg">
  <defs>
    <filter x="235px" y="179px" width="232px" height="45px" filterUnits="userSpaceOnUse" id="filter91">
      <feOffset dx="0" dy="0" in="SourceAlpha" result="shadowOffsetInner" />
      <feGaussianBlur stdDeviation="2.5" in="shadowOffsetInner" result="shadowGaussian" />
      <feComposite in2="shadowGaussian" operator="atop" in="SourceAlpha" result="shadowComposite" />
      <feColorMatrix type="matrix" values="0 0 0 0 0  0 0 0 0 0  0 0 0 0 0  0 0 0 0.349019607843137 0  " in="shadowComposite" />
    </filter>
    <g id="widget92">
      <path d="M 240 210.562091503268  C 240 210.562091503268  240 186  240 186  C 240 184.895430500338  240.895430500338 184  242 184  C 242 184  460 184  460 184  C 461.104569499662 184  462 184.895430500338  462 186  C 462 186  462 210.562091503268  462 210.562091503268  C 462 211.66666100293  461.104569499662 212.562091503268  460 212.562091503268  C 460 212.562091503268  454.468061674009 212.562091503268  454.468061674009 212.562091503268  C 454.468061674009 212.562091503268  446.08722741433 218.04984423676  446.08722741433 218.04984423676  C 446.08722741433 218.04984423676  436.968061674009 212.562091503268  436.968061674009 212.562091503268  C 436.968061674009 212.562091503268  242 212.562091503268  242 212.562091503268  C 240.895430500338 212.562091503268  240 211.66666100293  240 210.562091503268  Z " fill-rule="nonzero" fill="#000000" stroke="none" fill-opacity="0.498039215686275" />
    </g>
  </defs>
  <g transform="matrix(1 0 0 1 -235 -179 )">
    <use xlink:href="#widget92" filter="url(#filter91)" />
    <use xlink:href="#widget92" />
  </g>
</svg>