<?xml version="1.0" encoding="utf-8"?>
<svg version="1.1" xmlns:xlink="http://www.w3.org/1999/xlink" width="95px" height="121px" xmlns="http://www.w3.org/2000/svg">
  <g transform="matrix(1 0 0 1 -223 -9 )">
    <path d="M 223 9  L 318 9  L 318 130  L 223 130  L 223 9  " fill-rule="nonzero" fill="#cccccc" stroke="none" />
    <path d="M 230 16  L 311 16  L 311 123  L 230 123  L 230 16  " fill-rule="nonzero" fill="#ffffff" stroke="none" />
    <path d="M 279.525 41.4  C 275.535 41.4  272.4 38.265  272.4 34.275  C 272.4 30.285  275.535 27.15  279.525 27.15  C 283.515 27.15  286.65 30.285  286.65 34.275  C 286.65 38.265  283.515 41.4  279.525 41.4  " fill-rule="nonzero" fill="#cccccc" stroke="none" />
    <path d="M 233 121  L 233 64.9  L 252 39.4  L 278.6 59.8  L 293.8 54.7  L 309 59.8  L 309 121  L 233 121  " fill-rule="nonzero" fill="#169bd5" stroke="none" />
  </g>
</svg>