<?xml version="1.0" encoding="utf-8"?>
<svg version="1.1" xmlns:xlink="http://www.w3.org/1999/xlink" width="12px" height="12px" viewBox="82 319  12 12" xmlns="http://www.w3.org/2000/svg">
  <path d="M 88 319  C 91.36 319  94 321.64  94 325  C 94 328.36  91.36 331  88 331  C 84.64 331  82 328.36  82 325  C 82 321.64  84.64 319  88 319  Z " fill-rule="nonzero" fill="#f0f0f0" stroke="none" />
  <path d="M 88 319.5  C 91.08 319.5  93.5 321.92  93.5 325  C 93.5 328.08  91.08 330.5  88 330.5  C 84.92 330.5  82.5 328.08  82.5 325  C 82.5 321.92  84.92 319.5  88 319.5  Z " stroke-width="1" stroke="#797979" fill="none" />
  <path d="M 88 328  C 86.32 328  85 326.68  85 325  C 85 323.32  86.32 322  88 322  C 89.68 322  91 323.32  91 325  C 91 326.68  89.68 328  88 328  " fill-rule="nonzero" fill="#797979" stroke="none" />
</svg>