<?xml version="1.0" encoding="utf-8"?>
<svg version="1.1" xmlns:xlink="http://www.w3.org/1999/xlink" width="12px" height="12px" viewBox="76 229  12 12" xmlns="http://www.w3.org/2000/svg">
  <path d="M 82 229  C 85.36 229  88 231.64  88 235  C 88 238.36  85.36 241  82 241  C 78.64 241  76 238.36  76 235  C 76 231.64  78.64 229  82 229  Z " fill-rule="nonzero" fill="#ffffff" stroke="none" />
  <path d="M 82 229.5  C 85.08 229.5  87.5 231.92  87.5 235  C 87.5 238.08  85.08 240.5  82 240.5  C 78.92 240.5  76.5 238.08  76.5 235  C 76.5 231.92  78.92 229.5  82 229.5  Z " stroke-width="1" stroke="#797979" fill="none" />
  <path d="M 82 238  C 80.32 238  79 236.68  79 235  C 79 233.32  80.32 232  82 232  C 83.68 232  85 233.32  85 235  C 85 236.68  83.68 238  82 238  " fill-rule="nonzero" fill="#797979" stroke="none" />
</svg>