<?xml version="1.0" encoding="utf-8"?>
<svg version="1.1" xmlns:xlink="http://www.w3.org/1999/xlink" width="247px" height="121px" xmlns="http://www.w3.org/2000/svg">
  <defs>
    <mask fill="white" id="clip200">
      <path d="M 0 98  L 0 4  C 0 1.75999999999999  1.76000000000022 0  4 0  L 233 0  C 235.24 0  237 1.75999999999999  237 4  L 237 98  C 237 100.24  235.24 102  233 102  L 208.391812865497 102  L 199 110.029239766082  L 190.263157894737 102  L 4 102  C 1.76000000000022 102  0 100.24  0 98  Z " fill-rule="evenodd" />
    </mask>
    <filter x="1016px" y="4150px" width="247px" height="121px" filterUnits="userSpaceOnUse" id="filter201">
      <feOffset dx="0" dy="0" in="SourceAlpha" result="shadowOffsetInner" />
      <feGaussianBlur stdDeviation="2.5" in="shadowOffsetInner" result="shadowGaussian" />
      <feComposite in2="shadowGaussian" operator="atop" in="SourceAlpha" result="shadowComposite" />
      <feColorMatrix type="matrix" values="0 0 0 0 0  0 0 0 0 0  0 0 0 0 0  0 0 0 0.349019607843137 0  " in="shadowComposite" />
    </filter>
    <g id="widget202">
      <path d="M 0 98  L 0 4  C 0 1.75999999999999  1.76000000000022 0  4 0  L 233 0  C 235.24 0  237 1.75999999999999  237 4  L 237 98  C 237 100.24  235.24 102  233 102  L 208.391812865497 102  L 199 110.029239766082  L 190.263157894737 102  L 4 102  C 1.76000000000022 102  0 100.24  0 98  Z " fill-rule="nonzero" fill="#ffffff" stroke="none" transform="matrix(1 0 0 1 1021 4155 )" />
      <path d="M 0 98  L 0 4  C 0 1.75999999999999  1.76000000000022 0  4 0  L 233 0  C 235.24 0  237 1.75999999999999  237 4  L 237 98  C 237 100.24  235.24 102  233 102  L 208.391812865497 102  L 199 110.029239766082  L 190.263157894737 102  L 4 102  C 1.76000000000022 102  0 100.24  0 98  Z " stroke-width="2" stroke="#d7d7d7" fill="none" transform="matrix(1 0 0 1 1021 4155 )" mask="url(#clip200)" />
    </g>
  </defs>
  <g transform="matrix(1 0 0 1 -1016 -4150 )">
    <use xlink:href="#widget202" filter="url(#filter201)" />
    <use xlink:href="#widget202" />
  </g>
</svg>