<?xml version="1.0" encoding="utf-8"?>
<svg version="1.1" xmlns:xlink="http://www.w3.org/1999/xlink" width="12px" height="12px" viewBox="1015 4021  12 12" xmlns="http://www.w3.org/2000/svg">
  <path d="M 1021 4021  C 1024.36 4021  1027 4023.64  1027 4027  C 1027 4030.36  1024.36 4033  1021 4033  C 1017.64 4033  1015 4030.36  1015 4027  C 1015 4023.64  1017.64 4021  1021 4021  Z " fill-rule="nonzero" fill="#ffffff" stroke="none" />
  <path d="M 1021 4021.5  C 1024.08 4021.5  1026.5 4023.92  1026.5 4027  C 1026.5 4030.08  1024.08 4032.5  1021 4032.5  C 1017.92 4032.5  1015.5 4030.08  1015.5 4027  C 1015.5 4023.92  1017.92 4021.5  1021 4021.5  Z " stroke-width="1" stroke="#02a7f0" fill="none" />
  <path d="M 1021 4030  C 1019.32 4030  1018 4028.68  1018 4027  C 1018 4025.32  1019.32 4024  1021 4024  C 1022.68 4024  1024 4025.32  1024 4027  C 1024 4028.68  1022.68 4030  1021 4030  " fill-rule="nonzero" fill="#02a7f0" stroke="none" />
</svg>