<?xml version="1.0" encoding="utf-8"?>
<svg version="1.1" xmlns:xlink="http://www.w3.org/1999/xlink" width="12px" height="12px" viewBox="503 6995  12 12" xmlns="http://www.w3.org/2000/svg">
  <path d="M 509 6995  C 512.36 6995  515 6997.64  515 7001  C 515 7004.36  512.36 7007  509 7007  C 505.64 7007  503 7004.36  503 7001  C 503 6997.64  505.64 6995  509 6995  Z " fill-rule="nonzero" fill="#f0f0f0" stroke="none" />
  <path d="M 509 6995.5  C 512.08 6995.5  514.5 6997.92  514.5 7001  C 514.5 7004.08  512.08 7006.5  509 7006.5  C 505.92 7006.5  503.5 7004.08  503.5 7001  C 503.5 6997.92  505.92 6995.5  509 6995.5  Z " stroke-width="1" stroke="#aaaaaa" fill="none" />
  <path d="M 509 7004  C 507.32 7004  506 7002.68  506 7001  C 506 6999.32  507.32 6998  509 6998  C 510.68 6998  512 6999.32  512 7001  C 512 7002.68  510.68 7004  509 7004  " fill-rule="nonzero" fill="#aaaaaa" stroke="none" />
</svg>