<?xml version="1.0" encoding="utf-8"?>
<svg version="1.1" xmlns:xlink="http://www.w3.org/1999/xlink" width="12px" height="12px" viewBox="503 6927  12 12" xmlns="http://www.w3.org/2000/svg">
  <path d="M 509 6927  C 512.36 6927  515 6929.64  515 6933  C 515 6936.36  512.36 6939  509 6939  C 505.64 6939  503 6936.36  503 6933  C 503 6929.64  505.64 6927  509 6927  Z " fill-rule="nonzero" fill="#f0f0f0" stroke="none" />
  <path d="M 509 6927.5  C 512.08 6927.5  514.5 6929.92  514.5 6933  C 514.5 6936.08  512.08 6938.5  509 6938.5  C 505.92 6938.5  503.5 6936.08  503.5 6933  C 503.5 6929.92  505.92 6927.5  509 6927.5  Z " stroke-width="1" stroke="#aaaaaa" fill="none" />
  <path d="M 509 6936  C 507.32 6936  506 6934.68  506 6933  C 506 6931.32  507.32 6930  509 6930  C 510.68 6930  512 6931.32  512 6933  C 512 6934.68  510.68 6936  509 6936  " fill-rule="nonzero" fill="#aaaaaa" stroke="none" />
</svg>