<?xml version="1.0" encoding="utf-8"?>
<svg version="1.1" xmlns:xlink="http://www.w3.org/1999/xlink" width="12px" height="12px" viewBox="503 6961  12 12" xmlns="http://www.w3.org/2000/svg">
  <path d="M 509 6961  C 512.36 6961  515 6963.64  515 6967  C 515 6970.36  512.36 6973  509 6973  C 505.64 6973  503 6970.36  503 6967  C 503 6963.64  505.64 6961  509 6961  Z " fill-rule="nonzero" fill="#ffffff" stroke="none" />
  <path d="M 509 6961.5  C 512.08 6961.5  514.5 6963.92  514.5 6967  C 514.5 6970.08  512.08 6972.5  509 6972.5  C 505.92 6972.5  503.5 6970.08  503.5 6967  C 503.5 6963.92  505.92 6961.5  509 6961.5  Z " stroke-width="1" stroke="#02a7f0" fill="none" />
  <path d="M 509 6970  C 507.32 6970  506 6968.68  506 6967  C 506 6965.32  507.32 6964  509 6964  C 510.68 6964  512 6965.32  512 6967  C 512 6968.68  510.68 6970  509 6970  " fill-rule="nonzero" fill="#02a7f0" stroke="none" />
</svg>