<?xml version="1.0" encoding="utf-8"?>
<svg version="1.1" xmlns:xlink="http://www.w3.org/1999/xlink" width="12px" height="12px" viewBox="1243 177  12 12" xmlns="http://www.w3.org/2000/svg">
  <path d="M 1249 177  C 1252.36 177  1255 179.64  1255 183  C 1255 186.36  1252.36 189  1249 189  C 1245.64 189  1243 186.36  1243 183  C 1243 179.64  1245.64 177  1249 177  Z " fill-rule="nonzero" fill="#f0f0f0" stroke="none" />
  <path d="M 1249 177.5  C 1252.08 177.5  1254.5 179.92  1254.5 183  C 1254.5 186.08  1252.08 188.5  1249 188.5  C 1245.92 188.5  1243.5 186.08  1243.5 183  C 1243.5 179.92  1245.92 177.5  1249 177.5  Z " stroke-width="1" stroke="#797979" fill="none" />
  <path d="M 1249 186  C 1247.32 186  1246 184.68  1246 183  C 1246 181.32  1247.32 180  1249 180  C 1250.68 180  1252 181.32  1252 183  C 1252 184.68  1250.68 186  1249 186  " fill-rule="nonzero" fill="#797979" stroke="none" />
</svg>