<?xml version="1.0" encoding="utf-8"?>
<svg version="1.1" xmlns:xlink="http://www.w3.org/1999/xlink" width="12px" height="12px" viewBox="305 2637  12 12" xmlns="http://www.w3.org/2000/svg">
  <path d="M 311 2637  C 314.36 2637  317 2639.64  317 2643  C 317 2646.36  314.36 2649  311 2649  C 307.64 2649  305 2646.36  305 2643  C 305 2639.64  307.64 2637  311 2637  Z " fill-rule="nonzero" fill="#f0f0f0" stroke="none" />
  <path d="M 311 2637.5  C 314.08 2637.5  316.5 2639.92  316.5 2643  C 316.5 2646.08  314.08 2648.5  311 2648.5  C 307.92 2648.5  305.5 2646.08  305.5 2643  C 305.5 2639.92  307.92 2637.5  311 2637.5  Z " stroke-width="1" stroke="#797979" fill="none" />
  <path d="M 311 2646  C 309.32 2646  308 2644.68  308 2643  C 308 2641.32  309.32 2640  311 2640  C 312.68 2640  314 2641.32  314 2643  C 314 2644.68  312.68 2646  311 2646  " fill-rule="nonzero" fill="#797979" stroke="none" />
</svg>