<?xml version="1.0" encoding="utf-8"?>
<svg version="1.1" xmlns:xlink="http://www.w3.org/1999/xlink" width="12px" height="12px" viewBox="332 1499  12 12" xmlns="http://www.w3.org/2000/svg">
  <path d="M 332.5 1501  A 1.5 1.5 0 0 1 334 1499.5 L 342 1499.5  A 1.5 1.5 0 0 1 343.5 1501 L 343.5 1509  A 1.5 1.5 0 0 1 342 1510.5 L 334 1510.5  A 1.5 1.5 0 0 1 332.5 1509 L 332.5 1501  Z " fill-rule="nonzero" fill="#f0f0f0" stroke="none" />
  <path d="M 332.5 1501  A 1.5 1.5 0 0 1 334 1499.5 L 342 1499.5  A 1.5 1.5 0 0 1 343.5 1501 L 343.5 1509  A 1.5 1.5 0 0 1 342 1510.5 L 334 1510.5  A 1.5 1.5 0 0 1 332.5 1509 L 332.5 1501  Z " stroke-width="1" stroke="#aaaaaa" fill="none" />
</svg>