<?xml version="1.0" encoding="utf-8"?>
<svg version="1.1" xmlns:xlink="http://www.w3.org/1999/xlink" width="12px" height="12px" viewBox="217 1177  12 12" xmlns="http://www.w3.org/2000/svg">
  <path d="M 223 1177  C 226.36 1177  229 1179.64  229 1183  C 229 1186.36  226.36 1189  223 1189  C 219.64 1189  217 1186.36  217 1183  C 217 1179.64  219.64 1177  223 1177  Z " fill-rule="nonzero" fill="#f0f0f0" stroke="none" />
  <path d="M 223 1177.5  C 226.08 1177.5  228.5 1179.92  228.5 1183  C 228.5 1186.08  226.08 1188.5  223 1188.5  C 219.92 1188.5  217.5 1186.08  217.5 1183  C 217.5 1179.92  219.92 1177.5  223 1177.5  Z " stroke-width="1" stroke="#02a7f0" fill="none" />
  <path d="M 223 1186  C 221.32 1186  220 1184.68  220 1183  C 220 1181.32  221.32 1180  223 1180  C 224.68 1180  226 1181.32  226 1183  C 226 1184.68  224.68 1186  223 1186  " fill-rule="nonzero" fill="#02a7f0" stroke="none" />
</svg>