<?xml version="1.0" encoding="utf-8"?>
<svg version="1.1" xmlns:xlink="http://www.w3.org/1999/xlink" width="12px" height="12px" viewBox="160 1177  12 12" xmlns="http://www.w3.org/2000/svg">
  <path d="M 166 1177  C 169.36 1177  172 1179.64  172 1183  C 172 1186.36  169.36 1189  166 1189  C 162.64 1189  160 1186.36  160 1183  C 160 1179.64  162.64 1177  166 1177  Z " fill-rule="nonzero" fill="#f0f0f0" stroke="none" />
  <path d="M 166 1177.5  C 169.08 1177.5  171.5 1179.92  171.5 1183  C 171.5 1186.08  169.08 1188.5  166 1188.5  C 162.92 1188.5  160.5 1186.08  160.5 1183  C 160.5 1179.92  162.92 1177.5  166 1177.5  Z " stroke-width="1" stroke="#aaaaaa" fill="none" />
  <path d="M 166 1186  C 164.32 1186  163 1184.68  163 1183  C 163 1181.32  164.32 1180  166 1180  C 167.68 1180  169 1181.32  169 1183  C 169 1184.68  167.68 1186  166 1186  " fill-rule="nonzero" fill="#aaaaaa" stroke="none" />
</svg>