<?xml version="1.0" encoding="utf-8"?>
<svg version="1.1" xmlns:xlink="http://www.w3.org/1999/xlink" width="12px" height="12px" viewBox="1112 -767  12 12" xmlns="http://www.w3.org/2000/svg">
  <path d="M 1118 -767  C 1121.36 -767  1124 -764.36  1124 -761  C 1124 -757.64  1121.36 -755  1118 -755  C 1114.64 -755  1112 -757.64  1112 -761  C 1112 -764.36  1114.64 -767  1118 -767  Z " fill-rule="nonzero" fill="#f0f0f0" stroke="none" />
  <path d="M 1118 -766.5  C 1121.08 -766.5  1123.5 -764.08  1123.5 -761  C 1123.5 -757.92  1121.08 -755.5  1118 -755.5  C 1114.92 -755.5  1112.5 -757.92  1112.5 -761  C 1112.5 -764.08  1114.92 -766.5  1118 -766.5  Z " stroke-width="1" stroke="#02a7f0" fill="none" />
  <path d="M 1118 -758  C 1116.32 -758  1115 -759.32  1115 -761  C 1115 -762.68  1116.32 -764  1118 -764  C 1119.68 -764  1121 -762.68  1121 -761  C 1121 -759.32  1119.68 -758  1118 -758  " fill-rule="nonzero" fill="#02a7f0" stroke="none" />
</svg>