<?xml version="1.0" encoding="utf-8"?>
<svg version="1.1" xmlns:xlink="http://www.w3.org/1999/xlink" width="12px" height="12px" viewBox="1194 -767  12 12" xmlns="http://www.w3.org/2000/svg">
  <path d="M 1200 -767  C 1203.36 -767  1206 -764.36  1206 -761  C 1206 -757.64  1203.36 -755  1200 -755  C 1196.64 -755  1194 -757.64  1194 -761  C 1194 -764.36  1196.64 -767  1200 -767  Z " fill-rule="nonzero" fill="#ffffff" stroke="none" />
  <path d="M 1200 -766.5  C 1203.08 -766.5  1205.5 -764.08  1205.5 -761  C 1205.5 -757.92  1203.08 -755.5  1200 -755.5  C 1196.92 -755.5  1194.5 -757.92  1194.5 -761  C 1194.5 -764.08  1196.92 -766.5  1200 -766.5  Z " stroke-width="1" stroke="#797979" fill="none" />
  <path d="M 1200 -758  C 1198.32 -758  1197 -759.32  1197 -761  C 1197 -762.68  1198.32 -764  1200 -764  C 1201.68 -764  1203 -762.68  1203 -761  C 1203 -759.32  1201.68 -758  1200 -758  " fill-rule="nonzero" fill="#797979" stroke="none" />
</svg>