<?xml version="1.0" encoding="utf-8"?>
<svg version="1.1" xmlns:xlink="http://www.w3.org/1999/xlink" width="12px" height="12px" viewBox="217 1171  12 12" xmlns="http://www.w3.org/2000/svg">
  <path d="M 223 1171  C 226.36 1171  229 1173.64  229 1177  C 229 1180.36  226.36 1183  223 1183  C 219.64 1183  217 1180.36  217 1177  C 217 1173.64  219.64 1171  223 1171  Z " fill-rule="nonzero" fill="#f0f0f0" stroke="none" />
  <path d="M 223 1171.5  C 226.08 1171.5  228.5 1173.92  228.5 1177  C 228.5 1180.08  226.08 1182.5  223 1182.5  C 219.92 1182.5  217.5 1180.08  217.5 1177  C 217.5 1173.92  219.92 1171.5  223 1171.5  Z " stroke-width="1" stroke="#02a7f0" fill="none" />
  <path d="M 223 1180  C 221.32 1180  220 1178.68  220 1177  C 220 1175.32  221.32 1174  223 1174  C 224.68 1174  226 1175.32  226 1177  C 226 1178.68  224.68 1180  223 1180  " fill-rule="nonzero" fill="#02a7f0" stroke="none" />
</svg>