<?xml version="1.0" encoding="utf-8"?>
<svg version="1.1" xmlns:xlink="http://www.w3.org/1999/xlink" width="16px" height="16px" xmlns="http://www.w3.org/2000/svg">
  <g transform="matrix(1 0 0 1 -1133 -176 )">
    <path d="M 1141 176  C 1145.48 176  1149 179.52  1149 184  C 1149 188.48  1145.48 192  1141 192  C 1136.52 192  1133 188.48  1133 184  C 1133 179.52  1136.52 176  1141 176  Z " fill-rule="nonzero" fill="#ffffff" stroke="none" fill-opacity="0" />
    <path d="M 1141 176.5  C 1145.2 176.5  1148.5 179.8  1148.5 184  C 1148.5 188.2  1145.2 191.5  1141 191.5  C 1136.8 191.5  1133.5 188.2  1133.5 184  C 1133.5 179.8  1136.8 176.5  1141 176.5  Z " stroke-width="1" stroke="#797979" fill="none" />
  </g>
</svg>