<?xml version="1.0" encoding="utf-8"?>
<svg version="1.1" xmlns:xlink="http://www.w3.org/1999/xlink" width="202px" height="100px" xmlns="http://www.w3.org/2000/svg">
  <defs>
    <filter x="2640px" y="315px" width="202px" height="100px" filterUnits="userSpaceOnUse" id="filter169">
      <feOffset dx="0" dy="0" in="SourceAlpha" result="shadowOffsetInner" />
      <feGaussianBlur stdDeviation="2.5" in="shadowOffsetInner" result="shadowGaussian" />
      <feComposite in2="shadowGaussian" operator="atop" in="SourceAlpha" result="shadowComposite" />
      <feColorMatrix type="matrix" values="0 0 0 0 0  0 0 0 0 0  0 0 0 0 0  0 0 0 0.349019607843137 0  " in="shadowComposite" />
    </filter>
    <g id="widget170">
      <path d="M 2645.5 398.051807228916  C 2645.5 398.051807228916  2645.5 324  2645.5 324  C 2645.5 322.067003375592  2647.06700337559 320.5  2649 320.5  C 2649 320.5  2833 320.5  2833 320.5  C 2834.93299662441 320.5  2836.5 322.067003375592  2836.5 324  C 2836.5 324  2836.5 398.051807228916  2836.5 398.051807228916  C 2836.5 399.984803853323  2834.93299662441 401.551807228916  2833 401.551807228916  C 2833 401.551807228916  2820.32001363339 401.551807228916  2820.32001363339 401.551807228916  C 2820.32001363339 401.551807228916  2810.71190175622 408.633897874213  2810.71190175622 408.633897874213  C 2810.71190175622 408.633897874213  2800.64260050895 401.551807228916  2800.64260050895 401.551807228916  C 2800.64260050895 401.551807228916  2649 401.551807228916  2649 401.551807228916  C 2647.06700337559 401.551807228916  2645.5 399.984803853323  2645.5 398.051807228916  Z " fill-rule="nonzero" fill="#ffffff" stroke="none" />
      <path d="M 2645 398.051807228916  C 2645 398.051807228916  2645 324  2645 324  C 2645 321.790861000677  2646.79086100068 320  2649 320  C 2649 320  2833 320  2833 320  C 2835.20913899932 320  2837 321.790861000677  2837 324  C 2837 324  2837 398.051807228916  2837 398.051807228916  C 2837 400.260946228239  2835.20913899932 402.051807228916  2833 402.051807228916  C 2833 402.051807228916  2820.484375 402.051807228916  2820.484375 402.051807228916  C 2820.484375 402.051807228916  2810.71875 409.25  2810.71875 409.25  C 2810.71875 409.25  2800.484375 402.051807228916  2800.484375 402.051807228916  C 2800.484375 402.051807228916  2649 402.051807228916  2649 402.051807228916  C 2646.79086100068 402.051807228916  2645 400.260946228239  2645 398.051807228916  Z M 2646 398.051807228916  C 2646 399.708661478408  2647.34314575051 401.051807228916  2649 401.051807228916  C 2649 401.051807228916  2800.80082601791 401.051807228916  2800.80082601791 401.051807228916  C 2800.80082601791 401.051807228916  2810.70505351244 408.017795748425  2810.70505351244 408.017795748425  C 2810.70505351244 408.017795748425  2820.15565226677 401.051807228916  2820.15565226677 401.051807228916  C 2820.15565226677 401.051807228916  2833 401.051807228916  2833 401.051807228916  C 2834.65685424949 401.051807228916  2836 399.708661478408  2836 398.051807228916  C 2836 398.051807228916  2836 324  2836 324  C 2836 322.343145750508  2834.65685424949 321  2833 321  C 2833 321  2649 321  2649 321  C 2647.34314575051 321  2646 322.343145750508  2646 324  C 2646 324  2646 398.051807228916  2646 398.051807228916  Z " fill-rule="nonzero" fill="#d7d7d7" stroke="none" />
    </g>
  </defs>
  <g transform="matrix(1 0 0 1 -2640 -315 )">
    <use xlink:href="#widget170" filter="url(#filter169)" />
    <use xlink:href="#widget170" />
  </g>
</svg>