<?xml version="1.0" encoding="utf-8"?>
<svg version="1.1" xmlns:xlink="http://www.w3.org/1999/xlink" width="348px" height="482px" xmlns="http://www.w3.org/2000/svg">
  <defs>
    <filter x="1765px" y="2654px" width="348px" height="482px" filterUnits="userSpaceOnUse" id="filter173">
      <feOffset dx="0" dy="0" in="SourceAlpha" result="shadowOffsetInner" />
      <feGaussianBlur stdDeviation="2.5" in="shadowOffsetInner" result="shadowGaussian" />
      <feComposite in2="shadowGaussian" operator="atop" in="SourceAlpha" result="shadowComposite" />
      <feColorMatrix type="matrix" values="0 0 0 0 0  0 0 0 0 0  0 0 0 0 0  0 0 0 0.349019607843137 0  " in="shadowComposite" />
    </filter>
    <g id="widget174">
      <path d="M 1770.5 3115  C 1770.5 3115  1770.5 2663  1770.5 2663  C 1770.5 2661.06700337559  1772.06700337559 2659.5  1774 2659.5  C 1774 2659.5  2104 2659.5  2104 2659.5  C 2105.93299662441 2659.5  2107.5 2661.06700337559  2107.5 2663  C 2107.5 2663  2107.5 3115  2107.5 3115  C 2107.5 3116.93299662441  2105.93299662441 3118.5  2104 3118.5  C 2104 3118.5  2080.88505507431 3118.5  2080.88505507431 3118.5  C 2080.88505507431 3118.5  2068.76923076923 3129.40424187457  2068.76923076923 3129.40424187457  C 2068.76923076923 3129.40424187457  2056.65340646415 3118.5  2056.65340646415 3118.5  C 2056.65340646415 3118.5  1774 3118.5  1774 3118.5  C 1772.06700337559 3118.5  1770.5 3116.93299662441  1770.5 3115  Z " fill-rule="nonzero" fill="#ffffff" stroke="none" />
      <path d="M 1770 3115  C 1770 3115  1770 2663  1770 2663  C 1770 2660.79086100068  1771.79086100068 2659  1774 2659  C 1774 2659  2104 2659  2104 2659  C 2106.20913899932 2659  2108 2660.79086100068  2108 2663  C 2108 2663  2108 3115  2108 3115  C 2108 3117.20913899932  2106.20913899932 3119  2104 3119  C 2104 3119  2081.07692307692 3119  2081.07692307692 3119  C 2081.07692307692 3119  2068.76923076923 3130.07692307692  2068.76923076923 3130.07692307692  C 2068.76923076923 3130.07692307692  2056.46153846154 3119  2056.46153846154 3119  C 2056.46153846154 3119  1774 3119  1774 3119  C 1771.79086100068 3119  1770 3117.20913899932  1770 3115  Z M 1771 3115  C 1771 3116.65685424949  1772.34314575051 3118  1774 3118  C 1774 3118  2056.84527446677 3118  2056.84527446677 3118  C 2056.84527446677 3118  2068.76923076923 3128.73156067222  2068.76923076923 3128.73156067222  C 2068.76923076923 3128.73156067222  2080.69318707169 3118  2080.69318707169 3118  C 2080.69318707169 3118  2104 3118  2104 3118  C 2105.65685424949 3118  2107 3116.65685424949  2107 3115  C 2107 3115  2107 2663  2107 2663  C 2107 2661.34314575051  2105.65685424949 2660  2104 2660  C 2104 2660  1774 2660  1774 2660  C 1772.34314575051 2660  1771 2661.34314575051  1771 2663  C 1771 2663  1771 3115  1771 3115  Z " fill-rule="nonzero" fill="#d7d7d7" stroke="none" />
    </g>
  </defs>
  <g transform="matrix(1 0 0 1 -1765 -2654 )">
    <use xlink:href="#widget174" filter="url(#filter173)" />
    <use xlink:href="#widget174" />
  </g>
</svg>