<?xml version="1.0" encoding="utf-8"?>
<svg version="1.1" xmlns:xlink="http://www.w3.org/1999/xlink" width="12px" height="12px" viewBox="1880 2473  12 12" xmlns="http://www.w3.org/2000/svg">
  <path d="M 1886 2473  C 1889.36 2473  1892 2475.64  1892 2479  C 1892 2482.36  1889.36 2485  1886 2485  C 1882.64 2485  1880 2482.36  1880 2479  C 1880 2475.64  1882.64 2473  1886 2473  Z " fill-rule="nonzero" fill="#f0f0f0" stroke="none" />
  <path d="M 1886 2473.5  C 1889.08 2473.5  1891.5 2475.92  1891.5 2479  C 1891.5 2482.08  1889.08 2484.5  1886 2484.5  C 1882.92 2484.5  1880.5 2482.08  1880.5 2479  C 1880.5 2475.92  1882.92 2473.5  1886 2473.5  Z " stroke-width="1" stroke="#aaaaaa" fill="none" />
  <path d="M 1886 2482  C 1884.32 2482  1883 2480.68  1883 2479  C 1883 2477.32  1884.32 2476  1886 2476  C 1887.68 2476  1889 2477.32  1889 2479  C 1889 2480.68  1887.68 2482  1886 2482  " fill-rule="nonzero" fill="#aaaaaa" stroke="none" />
</svg>