<?xml version="1.0" encoding="utf-8"?>
<svg version="1.1" xmlns:xlink="http://www.w3.org/1999/xlink" width="12px" height="12px" viewBox="2732 1193  12 12" xmlns="http://www.w3.org/2000/svg">
  <path d="M 2738 1193  C 2741.36 1193  2744 1195.64  2744 1199  C 2744 1202.36  2741.36 1205  2738 1205  C 2734.64 1205  2732 1202.36  2732 1199  C 2732 1195.64  2734.64 1193  2738 1193  Z " fill-rule="nonzero" fill="#ffffff" stroke="none" />
  <path d="M 2738 1193.5  C 2741.08 1193.5  2743.5 1195.92  2743.5 1199  C 2743.5 1202.08  2741.08 1204.5  2738 1204.5  C 2734.92 1204.5  2732.5 1202.08  2732.5 1199  C 2732.5 1195.92  2734.92 1193.5  2738 1193.5  Z " stroke-width="1" stroke="#02a7f0" fill="none" />
  <path d="M 2738 1202  C 2736.32 1202  2735 1200.68  2735 1199  C 2735 1197.32  2736.32 1196  2738 1196  C 2739.68 1196  2741 1197.32  2741 1199  C 2741 1200.68  2739.68 1202  2738 1202  " fill-rule="nonzero" fill="#02a7f0" stroke="none" />
</svg>