<?xml version="1.0" encoding="utf-8"?>
<svg version="1.1" xmlns:xlink="http://www.w3.org/1999/xlink" width="12px" height="12px" viewBox="166 1595  12 12" xmlns="http://www.w3.org/2000/svg">
  <path d="M 172 1595  C 175.36 1595  178 1597.64  178 1601  C 178 1604.36  175.36 1607  172 1607  C 168.64 1607  166 1604.36  166 1601  C 166 1597.64  168.64 1595  172 1595  Z " fill-rule="nonzero" fill="#ffffff" stroke="none" />
  <path d="M 172 1595.5  C 175.08 1595.5  177.5 1597.92  177.5 1601  C 177.5 1604.08  175.08 1606.5  172 1606.5  C 168.92 1606.5  166.5 1604.08  166.5 1601  C 166.5 1597.92  168.92 1595.5  172 1595.5  Z " stroke-width="1" stroke="#aaaaaa" fill="none" />
  <path d="M 172 1604  C 170.32 1604  169 1602.68  169 1601  C 169 1599.32  170.32 1598  172 1598  C 173.68 1598  175 1599.32  175 1601  C 175 1602.68  173.68 1604  172 1604  " fill-rule="nonzero" fill="#aaaaaa" stroke="none" />
</svg>