<?xml version="1.0" encoding="utf-8"?>
<svg version="1.1" xmlns:xlink="http://www.w3.org/1999/xlink" width="12px" height="12px" viewBox="2781 1193  12 12" xmlns="http://www.w3.org/2000/svg">
  <path d="M 2787 1193  C 2790.36 1193  2793 1195.64  2793 1199  C 2793 1202.36  2790.36 1205  2787 1205  C 2783.64 1205  2781 1202.36  2781 1199  C 2781 1195.64  2783.64 1193  2787 1193  Z " fill-rule="nonzero" fill="#f0f0f0" stroke="none" />
  <path d="M 2787 1193.5  C 2790.08 1193.5  2792.5 1195.92  2792.5 1199  C 2792.5 1202.08  2790.08 1204.5  2787 1204.5  C 2783.92 1204.5  2781.5 1202.08  2781.5 1199  C 2781.5 1195.92  2783.92 1193.5  2787 1193.5  Z " stroke-width="1" stroke="#aaaaaa" fill="none" />
  <path d="M 2787 1202  C 2785.32 1202  2784 1200.68  2784 1199  C 2784 1197.32  2785.32 1196  2787 1196  C 2788.68 1196  2790 1197.32  2790 1199  C 2790 1200.68  2788.68 1202  2787 1202  " fill-rule="nonzero" fill="#aaaaaa" stroke="none" />
</svg>