<?xml version="1.0" encoding="utf-8"?>
<svg version="1.1" xmlns:xlink="http://www.w3.org/1999/xlink" width="12px" height="12px" viewBox="160 1171  12 12" xmlns="http://www.w3.org/2000/svg">
  <path d="M 166 1171  C 169.36 1171  172 1173.64  172 1177  C 172 1180.36  169.36 1183  166 1183  C 162.64 1183  160 1180.36  160 1177  C 160 1173.64  162.64 1171  166 1171  Z " fill-rule="nonzero" fill="#f0f0f0" stroke="none" />
  <path d="M 166 1171.5  C 169.08 1171.5  171.5 1173.92  171.5 1177  C 171.5 1180.08  169.08 1182.5  166 1182.5  C 162.92 1182.5  160.5 1180.08  160.5 1177  C 160.5 1173.92  162.92 1171.5  166 1171.5  Z " stroke-width="1" stroke="#aaaaaa" fill="none" />
  <path d="M 166 1180  C 164.32 1180  163 1178.68  163 1177  C 163 1175.32  164.32 1174  166 1174  C 167.68 1174  169 1175.32  169 1177  C 169 1178.68  167.68 1180  166 1180  " fill-rule="nonzero" fill="#aaaaaa" stroke="none" />
</svg>