<?xml version="1.0" encoding="utf-8"?>
<svg version="1.1" xmlns:xlink="http://www.w3.org/1999/xlink" width="12px" height="12px" viewBox="2609 2001  12 12" xmlns="http://www.w3.org/2000/svg">
  <path d="M 2615 2001  C 2618.36 2001  2621 2003.64  2621 2007  C 2621 2010.36  2618.36 2013  2615 2013  C 2611.64 2013  2609 2010.36  2609 2007  C 2609 2003.64  2611.64 2001  2615 2001  Z " fill-rule="nonzero" fill="#ffffff" stroke="none" />
  <path d="M 2615 2001.5  C 2618.08 2001.5  2620.5 2003.92  2620.5 2007  C 2620.5 2010.08  2618.08 2012.5  2615 2012.5  C 2611.92 2012.5  2609.5 2010.08  2609.5 2007  C 2609.5 2003.92  2611.92 2001.5  2615 2001.5  Z " stroke-width="1" stroke="#02a7f0" fill="none" />
  <path d="M 2615 2010  C 2613.32 2010  2612 2008.68  2612 2007  C 2612 2005.32  2613.32 2004  2615 2004  C 2616.68 2004  2618 2005.32  2618 2007  C 2618 2008.68  2616.68 2010  2615 2010  " fill-rule="nonzero" fill="#02a7f0" stroke="none" />
</svg>