<?xml version="1.0" encoding="utf-8"?>
<svg version="1.1" xmlns:xlink="http://www.w3.org/1999/xlink" width="380px" height="328px" xmlns="http://www.w3.org/2000/svg">
  <defs>
    <filter x="2635px" y="939px" width="380px" height="328px" filterUnits="userSpaceOnUse" id="filter171">
      <feOffset dx="0" dy="0" in="SourceAlpha" result="shadowOffsetInner" />
      <feGaussianBlur stdDeviation="2.5" in="shadowOffsetInner" result="shadowGaussian" />
      <feComposite in2="shadowGaussian" operator="atop" in="SourceAlpha" result="shadowComposite" />
      <feColorMatrix type="matrix" values="0 0 0 0 0  0 0 0 0 0  0 0 0 0 0  0 0 0 0.349019607843137 0  " in="shadowComposite" />
    </filter>
    <g id="widget172">
      <path d="M 2640.5 1246  C 2640.5 1246  2640.5 948  2640.5 948  C 2640.5 946.067003375592  2642.06700337559 944.5  2644 944.5  C 2644 944.5  3006 944.5  3006 944.5  C 3007.93299662441 944.5  3009.5 946.067003375592  3009.5 948  C 3009.5 948  3009.5 1246  3009.5 1246  C 3009.5 1247.93299662441  3007.93299662441 1249.5  3006 1249.5  C 3006 1249.5  2712.40623415541 1249.5  2712.40623415541 1249.5  C 2712.40623415541 1249.5  2703.17898104541 1260.6414875101  2703.17898104541 1260.6414875101  C 2703.17898104541 1260.6414875101  2692.85976483944 1249.5  2692.85976483944 1249.5  C 2692.85976483944 1249.5  2644 1249.5  2644 1249.5  C 2642.06700337559 1249.5  2640.5 1247.93299662441  2640.5 1246  Z " fill-rule="nonzero" fill="#ffffff" stroke="none" />
      <path d="M 2640 1246  C 2640 1246  2640 948  2640 948  C 2640 945.790861000677  2641.79086100068 944  2644 944  C 2644 944  3006 944  3006 944  C 3008.20913899932 944  3010 945.790861000677  3010 948  C 3010 948  3010 1246  3010 1246  C 3010 1248.20913899932  3008.20913899932 1250  3006 1250  C 3006 1250  2712.64135021097 1250  2712.64135021097 1250  C 2712.64135021097 1250  2703.2 1261.4  2703.2 1261.4  C 2703.2 1261.4  2692.64135021097 1250  2692.64135021097 1250  C 2692.64135021097 1250  2644 1250  2644 1250  C 2641.79086100068 1250  2640 1248.20913899932  2640 1246  Z M 2641 1246  C 2641 1247.65685424949  2642.34314575051 1249  2644 1249  C 2644 1249  2693.07817946791 1249  2693.07817946791 1249  C 2693.07817946791 1249  2703.15796209081 1259.88297502021  2703.15796209081 1259.88297502021  C 2703.15796209081 1259.88297502021  2712.17111809985 1249  2712.17111809985 1249  C 2712.17111809985 1249  3006 1249  3006 1249  C 3007.65685424949 1249  3009 1247.65685424949  3009 1246  C 3009 1246  3009 948  3009 948  C 3009 946.343145750508  3007.65685424949 945  3006 945  C 3006 945  2644 945  2644 945  C 2642.34314575051 945  2641 946.343145750508  2641 948  C 2641 948  2641 1246  2641 1246  Z " fill-rule="nonzero" fill="#d7d7d7" stroke="none" />
    </g>
  </defs>
  <g transform="matrix(1 0 0 1 -2635 -939 )">
    <use xlink:href="#widget172" filter="url(#filter171)" />
    <use xlink:href="#widget172" />
  </g>
</svg>