<?xml version="1.0" encoding="utf-8"?>
<svg version="1.1" xmlns:xlink="http://www.w3.org/1999/xlink" width="12px" height="12px" viewBox="223 1727  12 12" xmlns="http://www.w3.org/2000/svg">
  <path d="M 229 1727  C 232.36 1727  235 1729.64  235 1733  C 235 1736.36  232.36 1739  229 1739  C 225.64 1739  223 1736.36  223 1733  C 223 1729.64  225.64 1727  229 1727  Z " fill-rule="nonzero" fill="#ffffff" stroke="none" />
  <path d="M 229 1727.5  C 232.08 1727.5  234.5 1729.92  234.5 1733  C 234.5 1736.08  232.08 1738.5  229 1738.5  C 225.92 1738.5  223.5 1736.08  223.5 1733  C 223.5 1729.92  225.92 1727.5  229 1727.5  Z " stroke-width="1" stroke="#02a7f0" fill="none" />
  <path d="M 229 1736  C 227.32 1736  226 1734.68  226 1733  C 226 1731.32  227.32 1730  229 1730  C 230.68 1730  232 1731.32  232 1733  C 232 1734.68  230.68 1736  229 1736  " fill-rule="nonzero" fill="#02a7f0" stroke="none" />
</svg>