<?xml version="1.0" encoding="utf-8"?>
<svg version="1.1" xmlns:xlink="http://www.w3.org/1999/xlink" width="12px" height="12px" viewBox="166 1727  12 12" xmlns="http://www.w3.org/2000/svg">
  <path d="M 172 1727  C 175.36 1727  178 1729.64  178 1733  C 178 1736.36  175.36 1739  172 1739  C 168.64 1739  166 1736.36  166 1733  C 166 1729.64  168.64 1727  172 1727  Z " fill-rule="nonzero" fill="#ffffff" stroke="none" />
  <path d="M 172 1727.5  C 175.08 1727.5  177.5 1729.92  177.5 1733  C 177.5 1736.08  175.08 1738.5  172 1738.5  C 168.92 1738.5  166.5 1736.08  166.5 1733  C 166.5 1729.92  168.92 1727.5  172 1727.5  Z " stroke-width="1" stroke="#aaaaaa" fill="none" />
  <path d="M 172 1736  C 170.32 1736  169 1734.68  169 1733  C 169 1731.32  170.32 1730  172 1730  C 173.68 1730  175 1731.32  175 1733  C 175 1734.68  173.68 1736  172 1736  " fill-rule="nonzero" fill="#aaaaaa" stroke="none" />
</svg>