<?xml version="1.0" encoding="utf-8"?>
<svg version="1.1" xmlns:xlink="http://www.w3.org/1999/xlink" width="202px" height="100px" xmlns="http://www.w3.org/2000/svg">
  <defs>
    <filter x="30px" y="90px" width="202px" height="100px" filterUnits="userSpaceOnUse" id="filter129">
      <feOffset dx="0" dy="0" in="SourceAlpha" result="shadowOffsetInner" />
      <feGaussianBlur stdDeviation="2.5" in="shadowOffsetInner" result="shadowGaussian" />
      <feComposite in2="shadowGaussian" operator="atop" in="SourceAlpha" result="shadowComposite" />
      <feColorMatrix type="matrix" values="0 0 0 0 0  0 0 0 0 0  0 0 0 0 0  0 0 0 0.349019607843137 0  " in="shadowComposite" />
    </filter>
    <g id="widget130">
      <path d="M 35.5 173.051807228916  C 35.5 173.051807228916  35.5 99  35.5 99  C 35.5 97.0670033755922  37.0670033755922 95.5  39 95.5  C 39 95.5  223 95.5  223 95.5  C 224.932996624408 95.5  226.5 97.0670033755922  226.5 99  C 226.5 99  226.5 173.051807228916  226.5 173.051807228916  C 226.5 174.984803853323  224.932996624408 176.551807228916  223 176.551807228916  C 223 176.551807228916  210.320013633387 176.551807228916  210.320013633387 176.551807228916  C 210.320013633387 176.551807228916  200.711901756222 183.633897874213  200.711901756222 183.633897874213  C 200.711901756222 183.633897874213  190.642600508953 176.551807228916  190.642600508953 176.551807228916  C 190.642600508953 176.551807228916  39 176.551807228916  39 176.551807228916  C 37.0670033755922 176.551807228916  35.5 174.984803853323  35.5 173.051807228916  Z " fill-rule="nonzero" fill="#ffffff" stroke="none" />
      <path d="M 35 173.051807228916  C 35 173.051807228916  35 99  35 99  C 35 96.7908610006768  36.7908610006768 95  39 95  C 39 95  223 95  223 95  C 225.209138999323 95  227 96.7908610006768  227 99  C 227 99  227 173.051807228916  227 173.051807228916  C 227 175.260946228239  225.209138999323 177.051807228916  223 177.051807228916  C 223 177.051807228916  210.484375 177.051807228916  210.484375 177.051807228916  C 210.484375 177.051807228916  200.71875 184.25  200.71875 184.25  C 200.71875 184.25  190.484375 177.051807228916  190.484375 177.051807228916  C 190.484375 177.051807228916  39 177.051807228916  39 177.051807228916  C 36.7908610006768 177.051807228916  35 175.260946228239  35 173.051807228916  Z M 36 173.051807228916  C 36 174.708661478408  37.3431457505076 176.051807228916  39 176.051807228916  C 39 176.051807228916  190.800826017905 176.051807228916  190.800826017905 176.051807228916  C 190.800826017905 176.051807228916  200.705053512444 183.017795748425  200.705053512444 183.017795748425  C 200.705053512444 183.017795748425  210.155652266774 176.051807228916  210.155652266774 176.051807228916  C 210.155652266774 176.051807228916  223 176.051807228916  223 176.051807228916  C 224.656854249492 176.051807228916  226 174.708661478408  226 173.051807228916  C 226 173.051807228916  226 99  226 99  C 226 97.3431457505076  224.656854249492 96  223 96  C 223 96  39 96  39 96  C 37.3431457505076 96  36 97.3431457505076  36 99  C 36 99  36 173.051807228916  36 173.051807228916  Z " fill-rule="nonzero" fill="#d7d7d7" stroke="none" />
    </g>
  </defs>
  <g transform="matrix(1 0 0 1 -30 -90 )">
    <use xlink:href="#widget130" filter="url(#filter129)" />
    <use xlink:href="#widget130" />
  </g>
</svg>