<?xml version="1.0" encoding="utf-8"?>
<svg version="1.1" xmlns:xlink="http://www.w3.org/1999/xlink" width="12px" height="12px" viewBox="217 1289  12 12" xmlns="http://www.w3.org/2000/svg">
  <path d="M 223 1289  C 226.36 1289  229 1291.64  229 1295  C 229 1298.36  226.36 1301  223 1301  C 219.64 1301  217 1298.36  217 1295  C 217 1291.64  219.64 1289  223 1289  Z " fill-rule="nonzero" fill="#ffffff" stroke="none" />
  <path d="M 223 1289.5  C 226.08 1289.5  228.5 1291.92  228.5 1295  C 228.5 1298.08  226.08 1300.5  223 1300.5  C 219.92 1300.5  217.5 1298.08  217.5 1295  C 217.5 1291.92  219.92 1289.5  223 1289.5  Z " stroke-width="1" stroke="#02a7f0" fill="none" />
  <path d="M 223 1298  C 221.32 1298  220 1296.68  220 1295  C 220 1293.32  221.32 1292  223 1292  C 224.68 1292  226 1293.32  226 1295  C 226 1296.68  224.68 1298  223 1298  " fill-rule="nonzero" fill="#02a7f0" stroke="none" />
</svg>