<?xml version="1.0" encoding="utf-8"?>
<svg version="1.1" xmlns:xlink="http://www.w3.org/1999/xlink" width="12px" height="12px" viewBox="123 229  12 12" xmlns="http://www.w3.org/2000/svg">
  <path d="M 129 229  C 132.36 229  135 231.64  135 235  C 135 238.36  132.36 241  129 241  C 125.64 241  123 238.36  123 235  C 123 231.64  125.64 229  129 229  Z " fill-rule="nonzero" fill="#f0f0f0" stroke="none" />
  <path d="M 129 229.5  C 132.08 229.5  134.5 231.92  134.5 235  C 134.5 238.08  132.08 240.5  129 240.5  C 125.92 240.5  123.5 238.08  123.5 235  C 123.5 231.92  125.92 229.5  129 229.5  Z " stroke-width="1" stroke="#797979" fill="none" />
  <path d="M 129 238  C 127.32 238  126 236.68  126 235  C 126 233.32  127.32 232  129 232  C 130.68 232  132 233.32  132 235  C 132 236.68  130.68 238  129 238  " fill-rule="nonzero" fill="#797979" stroke="none" />
</svg>