<?xml version="1.0" encoding="utf-8"?>
<svg version="1.1" xmlns:xlink="http://www.w3.org/1999/xlink" width="12px" height="12px" viewBox="1274 177  12 12" xmlns="http://www.w3.org/2000/svg">
  <path d="M 1280 177  C 1283.36 177  1286 179.64  1286 183  C 1286 186.36  1283.36 189  1280 189  C 1276.64 189  1274 186.36  1274 183  C 1274 179.64  1276.64 177  1280 177  Z " fill-rule="nonzero" fill="#ffffff" stroke="none" />
  <path d="M 1280 177.5  C 1283.08 177.5  1285.5 179.92  1285.5 183  C 1285.5 186.08  1283.08 188.5  1280 188.5  C 1276.92 188.5  1274.5 186.08  1274.5 183  C 1274.5 179.92  1276.92 177.5  1280 177.5  Z " stroke-width="1" stroke="#797979" fill="none" />
  <path d="M 1280 186  C 1278.32 186  1277 184.68  1277 183  C 1277 181.32  1278.32 180  1280 180  C 1281.68 180  1283 181.32  1283 183  C 1283 184.68  1281.68 186  1280 186  " fill-rule="nonzero" fill="#797979" stroke="none" />
</svg>