<?xml version="1.0" encoding="utf-8"?>
<svg version="1.1" xmlns:xlink="http://www.w3.org/1999/xlink" width="12px" height="12px" viewBox="1169 922  12 12" xmlns="http://www.w3.org/2000/svg">
  <path d="M 1175 922  C 1178.36 922  1181 924.64  1181 928  C 1181 931.36  1178.36 934  1175 934  C 1171.64 934  1169 931.36  1169 928  C 1169 924.64  1171.64 922  1175 922  Z " fill-rule="nonzero" fill="#f0f0f0" stroke="none" />
  <path d="M 1175 922.5  C 1178.08 922.5  1180.5 924.92  1180.5 928  C 1180.5 931.08  1178.08 933.5  1175 933.5  C 1171.92 933.5  1169.5 931.08  1169.5 928  C 1169.5 924.92  1171.92 922.5  1175 922.5  Z " stroke-width="1" stroke="#797979" fill="none" />
  <path d="M 1175 931  C 1173.32 931  1172 929.68  1172 928  C 1172 926.32  1173.32 925  1175 925  C 1176.68 925  1178 926.32  1178 928  C 1178 929.68  1176.68 931  1175 931  " fill-rule="nonzero" fill="#797979" stroke="none" />
</svg>