<?xml version="1.0" encoding="utf-8"?>
<svg version="1.1" xmlns:xlink="http://www.w3.org/1999/xlink" width="87px" height="92px" xmlns="http://www.w3.org/2000/svg">
  <defs>
    <mask fill="white" id="clip65">
      <path d="M 0 78  L 0 9  C 0 6.76000000000001  1.75999999999999 5  4 5  L 32.7171717171717 5  L 38.7777777777778 0.828282828282823  L 45.0909090909091 5  L 73 5  C 75.24 5  77 6.76000000000001  77 9  L 77 78  C 77 80.24  75.24 82  73 82  L 4 82  C 1.75999999999999 82  0 80.24  0 78  Z " fill-rule="evenodd" />
    </mask>
    <filter x="905px" y="1156px" width="87px" height="92px" filterUnits="userSpaceOnUse" id="filter66">
      <feOffset dx="0" dy="0" in="SourceAlpha" result="shadowOffsetInner" />
      <feGaussianBlur stdDeviation="2.5" in="shadowOffsetInner" result="shadowGaussian" />
      <feComposite in2="shadowGaussian" operator="atop" in="SourceAlpha" result="shadowComposite" />
      <feColorMatrix type="matrix" values="0 0 0 0 0  0 0 0 0 0  0 0 0 0 0  0 0 0 0.349019607843137 0  " in="shadowComposite" />
    </filter>
    <g id="widget67">
      <path d="M 0 78  L 0 9  C 0 6.76000000000001  1.75999999999999 5  4 5  L 32.7171717171717 5  L 38.7777777777778 0.828282828282823  L 45.0909090909091 5  L 73 5  C 75.24 5  77 6.76000000000001  77 9  L 77 78  C 77 80.24  75.24 82  73 82  L 4 82  C 1.75999999999999 82  0 80.24  0 78  Z " fill-rule="nonzero" fill="#ffffff" stroke="none" transform="matrix(1 0 0 1 910 1161 )" />
      <path d="M 0 78  L 0 9  C 0 6.76000000000001  1.75999999999999 5  4 5  L 32.7171717171717 5  L 38.7777777777778 0.828282828282823  L 45.0909090909091 5  L 73 5  C 75.24 5  77 6.76000000000001  77 9  L 77 78  C 77 80.24  75.24 82  73 82  L 4 82  C 1.75999999999999 82  0 80.24  0 78  Z " stroke-width="2" stroke="#d7d7d7" fill="none" transform="matrix(1 0 0 1 910 1161 )" mask="url(#clip65)" />
    </g>
  </defs>
  <g transform="matrix(1 0 0 1 -905 -1156 )">
    <use xlink:href="#widget67" filter="url(#filter66)" />
    <use xlink:href="#widget67" />
  </g>
</svg>