<?xml version="1.0" encoding="utf-8"?>
<svg version="1.1" xmlns:xlink="http://www.w3.org/1999/xlink" width="210px" height="24px" xmlns="http://www.w3.org/2000/svg">
  <defs>
    <mask fill="white" id="clip102">
      <path d="M 0 22  L 0 2  C 0 0.879999999999995  1.05 0  2.38636363636364 0  L 69.4151069518717 0  L 207.613636363636 0  C 208.95 0  210 0.879999999999995  210 2  L 210 22  C 210 23.12  208.95 24  207.613636363636 24  L 2.38636363636364 24  C 1.05 24  0 23.12  0 22  Z " fill-rule="evenodd" />
    </mask>
  </defs>
  <g transform="matrix(1 0 0 1 -8 -407 )">
    <path d="M 0 22  L 0 2  C 0 0.879999999999995  1.05 0  2.38636363636364 0  L 69.4151069518717 0  L 207.613636363636 0  C 208.95 0  210 0.879999999999995  210 2  L 210 22  C 210 23.12  208.95 24  207.613636363636 24  L 2.38636363636364 24  C 1.05 24  0 23.12  0 22  Z " fill-rule="nonzero" fill="#ffffff" stroke="none" transform="matrix(1 0 0 1 8 407 )" />
    <path d="M 0 22  L 0 2  C 0 0.879999999999995  1.05 0  2.38636363636364 0  L 69.4151069518717 0  L 207.613636363636 0  C 208.95 0  210 0.879999999999995  210 2  L 210 22  C 210 23.12  208.95 24  207.613636363636 24  L 2.38636363636364 24  C 1.05 24  0 23.12  0 22  Z " stroke-width="2" stroke="#02a7f0" fill="none" transform="matrix(1 0 0 1 8 407 )" mask="url(#clip102)" />
  </g>
</svg>