<?xml version="1.0" encoding="utf-8"?>
<svg version="1.1" xmlns:xlink="http://www.w3.org/1999/xlink" width="12px" height="12px" viewBox="129 319  12 12" xmlns="http://www.w3.org/2000/svg">
  <path d="M 135 319  C 138.36 319  141 321.64  141 325  C 141 328.36  138.36 331  135 331  C 131.64 331  129 328.36  129 325  C 129 321.64  131.64 319  135 319  Z " fill-rule="nonzero" fill="#f0f0f0" stroke="none" />
  <path d="M 135 319.5  C 138.08 319.5  140.5 321.92  140.5 325  C 140.5 328.08  138.08 330.5  135 330.5  C 131.92 330.5  129.5 328.08  129.5 325  C 129.5 321.92  131.92 319.5  135 319.5  Z " stroke-width="1" stroke="#797979" fill="none" />
  <path d="M 135 328  C 133.32 328  132 326.68  132 325  C 132 323.32  133.32 322  135 322  C 136.68 322  138 323.32  138 325  C 138 326.68  136.68 328  135 328  " fill-rule="nonzero" fill="#797979" stroke="none" />
</svg>