<?xml version="1.0" encoding="utf-8"?>
<svg version="1.1" xmlns:xlink="http://www.w3.org/1999/xlink" width="12px" height="12px" viewBox="470 1843  12 12" xmlns="http://www.w3.org/2000/svg">
  <path d="M 476 1843  C 479.36 1843  482 1845.64  482 1849  C 482 1852.36  479.36 1855  476 1855  C 472.64 1855  470 1852.36  470 1849  C 470 1845.64  472.64 1843  476 1843  Z " fill-rule="nonzero" fill="#f0f0f0" stroke="none" />
  <path d="M 476 1843.5  C 479.08 1843.5  481.5 1845.92  481.5 1849  C 481.5 1852.08  479.08 1854.5  476 1854.5  C 472.92 1854.5  470.5 1852.08  470.5 1849  C 470.5 1845.92  472.92 1843.5  476 1843.5  Z " stroke-width="1" stroke="#02a7f0" fill="none" />
  <path d="M 476 1852  C 474.32 1852  473 1850.68  473 1849  C 473 1847.32  474.32 1846  476 1846  C 477.68 1846  479 1847.32  479 1849  C 479 1850.68  477.68 1852  476 1852  " fill-rule="nonzero" fill="#02a7f0" stroke="none" />
</svg>