<?xml version="1.0" encoding="utf-8"?>
<svg version="1.1" xmlns:xlink="http://www.w3.org/1999/xlink" width="12px" height="12px" viewBox="470 1877  12 12" xmlns="http://www.w3.org/2000/svg">
  <path d="M 476 1877  C 479.36 1877  482 1879.64  482 1883  C 482 1886.36  479.36 1889  476 1889  C 472.64 1889  470 1886.36  470 1883  C 470 1879.64  472.64 1877  476 1877  Z " fill-rule="nonzero" fill="#f0f0f0" stroke="none" />
  <path d="M 476 1877.5  C 479.08 1877.5  481.5 1879.92  481.5 1883  C 481.5 1886.08  479.08 1888.5  476 1888.5  C 472.92 1888.5  470.5 1886.08  470.5 1883  C 470.5 1879.92  472.92 1877.5  476 1877.5  Z " stroke-width="1" stroke="#aaaaaa" fill="none" />
  <path d="M 476 1886  C 474.32 1886  473 1884.68  473 1883  C 473 1881.32  474.32 1880  476 1880  C 477.68 1880  479 1881.32  479 1883  C 479 1884.68  477.68 1886  476 1886  " fill-rule="nonzero" fill="#aaaaaa" stroke="none" />
</svg>