<?xml version="1.0" encoding="utf-8"?>
<svg version="1.1" xmlns:xlink="http://www.w3.org/1999/xlink" width="32px" height="32px" xmlns="http://www.w3.org/2000/svg">
  <g transform="matrix(1 0 0 1 -171 -10 )">
    <path d="M 171 10  L 203 10  L 203 42  L 171 42  L 171 10  " fill-rule="nonzero" fill="#cccccc" stroke="none" />
    <path d="M 173 12  L 201 12  L 201 40  L 173 40  L 173 12  " fill-rule="nonzero" fill="#ffffff" stroke="none" />
    <path d="M 190.04 19.6  C 188.696 19.6  187.64 18.544  187.64 17.2  C 187.64 15.856  188.696 14.8  190.04 14.8  C 191.384 14.8  192.44 15.856  192.44 17.2  C 192.44 18.544  191.384 19.6  190.04 19.6  " fill-rule="nonzero" fill="#cccccc" stroke="none" />
    <path d="M 174 39  L 174 24.7  L 180.5 18.2  L 189.6 23.4  L 194.8 22.1  L 200 23.4  L 200 39  L 174 39  " fill-rule="nonzero" fill="#169bd5" stroke="none" />
  </g>
</svg>