<?xml version="1.0" encoding="utf-8"?>
<svg version="1.1" xmlns:xlink="http://www.w3.org/1999/xlink" width="12px" height="12px" viewBox="414 2637  12 12" xmlns="http://www.w3.org/2000/svg">
  <path d="M 420 2637  C 423.36 2637  426 2639.64  426 2643  C 426 2646.36  423.36 2649  420 2649  C 416.64 2649  414 2646.36  414 2643  C 414 2639.64  416.64 2637  420 2637  Z " fill-rule="nonzero" fill="#ffffff" stroke="none" />
  <path d="M 420 2637.5  C 423.08 2637.5  425.5 2639.92  425.5 2643  C 425.5 2646.08  423.08 2648.5  420 2648.5  C 416.92 2648.5  414.5 2646.08  414.5 2643  C 414.5 2639.92  416.92 2637.5  420 2637.5  Z " stroke-width="1" stroke="#02a7f0" fill="none" />
  <path d="M 420 2646  C 418.32 2646  417 2644.68  417 2643  C 417 2641.32  418.32 2640  420 2640  C 421.68 2640  423 2641.32  423 2643  C 423 2644.68  421.68 2646  420 2646  " fill-rule="nonzero" fill="#02a7f0" stroke="none" />
</svg>